<?xml version="1.0" encoding="UTF-8"?><svg id="Capa_2" xmlns="http://www.w3.org/2000/svg" viewBox="0 0 40 40"><defs><style>.cls-1{fill:#0db6cc;}</style></defs><g id="Capa_1-2"><path class="cls-1" d="m18.5,25.5v4.5c0,.43.14.79.42,1.08.28.28.64.42,1.08.42s.79-.14,1.08-.42c.28-.28.42-.64.42-1.08v-4.5h4.5c.43,0,.79-.14,1.08-.42.28-.28.42-.64.42-1.08s-.14-.79-.42-1.08c-.28-.28-.64-.42-1.08-.42h-4.5v-4.5c0-.43-.14-.79-.42-1.08-.28-.28-.64-.42-1.08-.42s-.79.14-1.08.42c-.28.28-.42.64-.42,1.08v4.5h-4.5c-.43,0-.79.14-1.08.42-.28.28-.42.64-.42,1.08s.14.79.42,1.08c.28.28.64.42,1.08.42h4.5Zm-15.5,14.5c-.8,0-1.5-.3-2.1-.9-.6-.6-.9-1.3-.9-2.1V10.35c0-.8.3-1.5.9-2.1.6-.6,1.3-.9,2.1-.9h9.5V3c0-.77.3-1.46.9-2.07.6-.62,1.3-.93,2.1-.93h9c.8,0,1.5.31,2.1.93.6.62.9,1.31.9,2.07v4.35h9.5c.8,0,1.5.3,2.1.9.6.6.9,1.3.9,2.1v26.65c0,.8-.3,1.5-.9,2.1-.6.6-1.3.9-2.1.9H3ZM15.5,7.35h9V3h-9v4.35ZM3,37h34V10.35H3v26.65Zm0,0V10.35v26.65Z"/></g></svg>